<svg width="100" height="100" viewBox="0 0 100 100" xmlns="http://www.w3.org/2000/svg">
  <defs>
    <pattern id="grid" width="20" height="20" patternUnits="userSpaceOnUse">
      <path d="M 20 0 L 0 0 0 20" fill="none" stroke="#3B82F6" stroke-width="0.3" opacity="0.1"/>
    </pattern>
    <pattern id="dots" width="20" height="20" patternUnits="userSpaceOnUse">
      <circle cx="10" cy="10" r="1" fill="#3B82F6" opacity="0.2"/>
    </pattern>
    <pattern id="circuit" width="100" height="100" patternUnits="userSpaceOnUse">
      <path d="M10,30 L40,30 L40,10 L70,10 L70,30 L90,30" fill="none" stroke="#3B82F6" stroke-width="0.5" opacity="0.2"/>
      <path d="M20,50 L50,50 L50,80 L80,80" fill="none" stroke="#3B82F6" stroke-width="0.5" opacity="0.2"/>
      <path d="M60,20 L60,60 L30,60 L30,90" fill="none" stroke="#3B82F6" stroke-width="0.5" opacity="0.2"/>
      <circle cx="40" cy="30" r="2" fill="#3B82F6" opacity="0.3"/>
      <circle cx="70" cy="10" r="2" fill="#3B82F6" opacity="0.3"/>
      <circle cx="50" cy="80" r="2" fill="#3B82F6" opacity="0.3"/>
      <circle cx="60" cy="60" r="2" fill="#3B82F6" opacity="0.3"/>
      <circle cx="30" cy="90" r="2" fill="#3B82F6" opacity="0.3"/>
    </pattern>
  </defs>
  <rect width="100" height="100" fill="url(#grid)"/>
  <rect width="100" height="100" fill="url(#dots)"/>
  <rect width="100" height="100" fill="url(#circuit)"/>
</svg> 